<svg xmlns="http://www.w3.org/2000/svg" width="820" height="380" viewBox="0 0 820 380" role="img" aria-label="Query Latency p50 (all queries)">
<title>Query Latency p50 (all queries)</title>
<rect width="100%" height="100%" fill="#ffffff"/>
<text x="410.0" y="22" text-anchor="middle" font-family="system-ui, -apple-system, sans-serif" font-size="15" font-weight="600" fill="#111827">Query Latency p50 (all queries)</text>
<text x="410.0" y="40" text-anchor="middle" font-family="system-ui, -apple-system, sans-serif" font-size="11" fill="#6b7280">lower is better</text>
<line x1="56" y1="292.0" x2="796" y2="292.0" stroke="#e5e7eb" stroke-width="1"/>
<text x="48" y="296.0" text-anchor="end" font-family="system-ui, -apple-system, sans-serif" font-size="11" fill="#6b7280">0.00</text>
<line x1="56" y1="231.0" x2="796" y2="231.0" stroke="#e5e7eb" stroke-width="1"/>
<text x="48" y="235.0" text-anchor="end" font-family="system-ui, -apple-system, sans-serif" font-size="11" fill="#6b7280">375.0</text>
<line x1="56" y1="170.0" x2="796" y2="170.0" stroke="#e5e7eb" stroke-width="1"/>
<text x="48" y="174.0" text-anchor="end" font-family="system-ui, -apple-system, sans-serif" font-size="11" fill="#6b7280">750.0</text>
<line x1="56" y1="109.0" x2="796" y2="109.0" stroke="#e5e7eb" stroke-width="1"/>
<text x="48" y="113.0" text-anchor="end" font-family="system-ui, -apple-system, sans-serif" font-size="11" fill="#6b7280">1125</text>
<line x1="56" y1="48.0" x2="796" y2="48.0" stroke="#e5e7eb" stroke-width="1"/>
<text x="48" y="52.0" text-anchor="end" font-family="system-ui, -apple-system, sans-serif" font-size="11" fill="#6b7280">1500 ms</text>
<line x1="56" y1="48" x2="56" y2="292" stroke="#9ca3af" stroke-width="1"/>
<line x1="56" y1="292" x2="796" y2="292" stroke="#9ca3af" stroke-width="1"/>
<rect x="100.4" y="283.8" width="22.5" height="8.2" fill="#2563eb" rx="2"><title>Nova / scan: 50.23 ms</title></rect>
<rect x="124.9" y="284.3" width="22.5" height="7.7" fill="#dc2626" rx="2"><title>Oxigraph / scan: 47.44 ms</title></rect>
<rect x="149.4" y="276.5" width="22.5" height="15.5" fill="#16a34a" rx="2"><title>QLever / scan: 95.49 ms</title></rect>
<text x="136.2" y="308" text-anchor="middle" font-family="system-ui, -apple-system, sans-serif" font-size="11" fill="#374151">scan</text>
<rect x="216.3" y="291.6" width="22.5" height="0.4" fill="#2563eb" rx="2"><title>Nova / 2join: 2.32 ms</title></rect>
<rect x="240.8" y="291.4" width="22.5" height="0.6" fill="#dc2626" rx="2"><title>Oxigraph / 2join: 3.61 ms</title></rect>
<rect x="265.4" y="291.5" width="22.5" height="0.5" fill="#16a34a" rx="2"><title>QLever / 2join: 3.35 ms</title></rect>
<text x="252.1" y="308" text-anchor="middle" font-family="system-ui, -apple-system, sans-serif" font-size="11" fill="#374151">2join</text>
<rect x="332.3" y="291.8" width="22.5" height="0.2" fill="#2563eb" rx="2"><title>Nova / feature_lookup: 1.47 ms</title></rect>
<rect x="356.8" y="291.1" width="22.5" height="0.9" fill="#dc2626" rx="2"><title>Oxigraph / feature_lookup: 5.38 ms</title></rect>
<rect x="381.3" y="291.7" width="22.5" height="0.3" fill="#16a34a" rx="2"><title>QLever / feature_lookup: 1.92 ms</title></rect>
<text x="368.0" y="308" text-anchor="middle" font-family="system-ui, -apple-system, sans-serif" font-size="11" fill="#374151">feature_lookup</text>
<rect x="448.2" y="289.5" width="22.5" height="2.5" fill="#2563eb" rx="2"><title>Nova / star_with_features: 15.57 ms</title></rect>
<rect x="472.7" y="289.1" width="22.5" height="2.9" fill="#dc2626" rx="2"><title>Oxigraph / star_with_features: 17.84 ms</title></rect>
<rect x="497.2" y="285.7" width="22.5" height="6.3" fill="#16a34a" rx="2"><title>QLever / star_with_features: 38.71 ms</title></rect>
<text x="484.0" y="308" text-anchor="middle" font-family="system-ui, -apple-system, sans-serif" font-size="11" fill="#374151">star_with_features</text>
<rect x="564.1" y="202.3" width="22.5" height="89.7" fill="#2563eb" rx="2"><title>Nova / path_2hop: 551.2 ms</title></rect>
<rect x="588.6" y="209.1" width="22.5" height="82.9" fill="#dc2626" rx="2"><title>Oxigraph / path_2hop: 509.5 ms</title></rect>
<rect x="613.2" y="88.2" width="22.5" height="203.8" fill="#16a34a" rx="2"><title>QLever / path_2hop: 1253 ms</title></rect>
<text x="599.9" y="308" text-anchor="middle" font-family="system-ui, -apple-system, sans-serif" font-size="11" fill="#374151">path_2hop</text>
<rect x="680.1" y="242.4" width="22.5" height="49.6" fill="#2563eb" rx="2"><title>Nova / triangle: 305.1 ms</title></rect>
<rect x="704.6" y="237.0" width="22.5" height="55.0" fill="#dc2626" rx="2"><title>Oxigraph / triangle: 337.8 ms</title></rect>
<rect x="729.1" y="222.9" width="22.5" height="69.1" fill="#16a34a" rx="2"><title>QLever / triangle: 425.0 ms</title></rect>
<text x="715.8" y="308" text-anchor="middle" font-family="system-ui, -apple-system, sans-serif" font-size="11" fill="#374151">triangle</text>
<rect x="293.0" y="343" width="12" height="12" fill="#2563eb" rx="2"/>
<text x="311.0" y="352" font-family="system-ui, -apple-system, sans-serif" font-size="12" fill="#374151">Nova</text>
<rect x="357.0" y="343" width="12" height="12" fill="#dc2626" rx="2"/>
<text x="375.0" y="352" font-family="system-ui, -apple-system, sans-serif" font-size="12" fill="#374151">Oxigraph</text>
<rect x="449.0" y="343" width="12" height="12" fill="#16a34a" rx="2"/>
<text x="467.0" y="352" font-family="system-ui, -apple-system, sans-serif" font-size="12" fill="#374151">QLever</text>
</svg>
