<svg xmlns="http://www.w3.org/2000/svg" width="820" height="380" viewBox="0 0 820 380" role="img" aria-label="Query Latency p50 (path_2hop / triangle)">
<title>Query Latency p50 (path_2hop / triangle)</title>
<style>
  .title { fill: #111827; }
  .muted { fill: #6b7280; }
  .label { fill: #374151; }
  .grid  { stroke: #e5e7eb; stroke-width: 1; }
  .axis  { stroke: #9ca3af; stroke-width: 1; }
  @media (prefers-color-scheme: dark) {
    .title { fill: #f3f4f6; }
    .muted { fill: #9ca3af; }
    .label { fill: #d1d5db; }
    .grid  { stroke: #374151; }
    .axis  { stroke: #6b7280; }
  }
</style>
<text class="title" x="410.0" y="22" text-anchor="middle" font-family="system-ui, -apple-system, sans-serif" font-size="15" font-weight="600">Query Latency p50 (path_2hop / triangle)</text>
<text class="muted" x="410.0" y="40" text-anchor="middle" font-family="system-ui, -apple-system, sans-serif" font-size="11">lower is better; separate scale from lighter queries</text>
<line class="grid" x1="56" y1="292.0" x2="796" y2="292.0"/>
<text class="muted" x="48" y="296.0" text-anchor="end" font-family="system-ui, -apple-system, sans-serif" font-size="11">0.00</text>
<line class="grid" x1="56" y1="231.0" x2="796" y2="231.0"/>
<text class="muted" x="48" y="235.0" text-anchor="end" font-family="system-ui, -apple-system, sans-serif" font-size="11">500.0</text>
<line class="grid" x1="56" y1="170.0" x2="796" y2="170.0"/>
<text class="muted" x="48" y="174.0" text-anchor="end" font-family="system-ui, -apple-system, sans-serif" font-size="11">1000</text>
<line class="grid" x1="56" y1="109.0" x2="796" y2="109.0"/>
<text class="muted" x="48" y="113.0" text-anchor="end" font-family="system-ui, -apple-system, sans-serif" font-size="11">1500</text>
<line class="grid" x1="56" y1="48.0" x2="796" y2="48.0"/>
<text class="muted" x="48" y="52.0" text-anchor="end" font-family="system-ui, -apple-system, sans-serif" font-size="11">2000 ms</text>
<line class="axis" x1="56" y1="48" x2="56" y2="292"/>
<line class="axis" x1="56" y1="292" x2="796" y2="292"/>
<rect x="158.1" y="238.9" width="36.0" height="53.1" fill="#2563eb" rx="2"><title>Nova (louds) / path_2hop: 435.1 ms</title></rect>
<rect x="196.1" y="237.1" width="36.0" height="54.9" fill="#7c3aed" rx="2"><title>Nova (ring) / path_2hop: 450.3 ms</title></rect>
<rect x="234.1" y="61.6" width="36.0" height="230.4" fill="#dc2626" rx="2"><title>Oxigraph / path_2hop: 1889 ms</title></rect>
<rect x="272.1" y="137.9" width="36.0" height="154.1" fill="#16a34a" rx="2"><title>QLever / path_2hop: 1263 ms</title></rect>
<rect x="310.1" y="120.4" width="36.0" height="171.6" fill="#ea580c" rx="2"><title>Fluree / path_2hop: 1406 ms</title></rect>
<text class="label" x="252.1" y="308" text-anchor="middle" font-family="system-ui, -apple-system, sans-serif" font-size="11">path_2hop</text>
<rect x="505.9" y="266.4" width="36.0" height="25.6" fill="#2563eb" rx="2"><title>Nova (louds) / triangle: 209.6 ms</title></rect>
<rect x="543.9" y="266.0" width="36.0" height="26.0" fill="#7c3aed" rx="2"><title>Nova (ring) / triangle: 212.7 ms</title></rect>
<rect x="581.9" y="87.7" width="36.0" height="204.3" fill="#dc2626" rx="2"><title>Oxigraph / triangle: 1675 ms</title></rect>
<rect x="619.9" y="240.3" width="36.0" height="51.7" fill="#16a34a" rx="2"><title>QLever / triangle: 423.5 ms</title></rect>
<rect x="657.9" y="215.1" width="36.0" height="76.9" fill="#ea580c" rx="2"><title>Fluree / triangle: 629.9 ms</title></rect>
<text class="label" x="599.9" y="308" text-anchor="middle" font-family="system-ui, -apple-system, sans-serif" font-size="11">triangle</text>
<rect x="169.5" y="343" width="12" height="12" fill="#2563eb" rx="2"/>
<text class="label" x="187.5" y="352" font-family="system-ui, -apple-system, sans-serif" font-size="12">Nova (louds)</text>
<rect x="289.5" y="343" width="12" height="12" fill="#7c3aed" rx="2"/>
<text class="label" x="307.5" y="352" font-family="system-ui, -apple-system, sans-serif" font-size="12">Nova (ring)</text>
<rect x="402.5" y="343" width="12" height="12" fill="#dc2626" rx="2"/>
<text class="label" x="420.5" y="352" font-family="system-ui, -apple-system, sans-serif" font-size="12">Oxigraph</text>
<rect x="494.5" y="343" width="12" height="12" fill="#16a34a" rx="2"/>
<text class="label" x="512.5" y="352" font-family="system-ui, -apple-system, sans-serif" font-size="12">QLever</text>
<rect x="572.5" y="343" width="12" height="12" fill="#ea580c" rx="2"/>
<text class="label" x="590.5" y="352" font-family="system-ui, -apple-system, sans-serif" font-size="12">Fluree</text>
</svg>
