<svg xmlns="http://www.w3.org/2000/svg" width="820" height="380" viewBox="0 0 820 380" role="img" aria-label="Query Latency p50 (path_2hop / triangle)">
<title>Query Latency p50 (path_2hop / triangle)</title>
<style>
  .title { fill: #111827; }
  .muted { fill: #6b7280; }
  .label { fill: #374151; }
  .grid  { stroke: #e5e7eb; stroke-width: 1; }
  .axis  { stroke: #9ca3af; stroke-width: 1; }
  @media (prefers-color-scheme: dark) {
    .title { fill: #f3f4f6; }
    .muted { fill: #9ca3af; }
    .label { fill: #d1d5db; }
    .grid  { stroke: #374151; }
    .axis  { stroke: #6b7280; }
  }
</style>
<text class="title" x="410.0" y="22" text-anchor="middle" font-family="system-ui, -apple-system, sans-serif" font-size="15" font-weight="600">Query Latency p50 (path_2hop / triangle)</text>
<text class="muted" x="410.0" y="40" text-anchor="middle" font-family="system-ui, -apple-system, sans-serif" font-size="11">lower is better; separate scale from lighter queries</text>
<line class="grid" x1="56" y1="292.0" x2="796" y2="292.0"/>
<text class="muted" x="48" y="296.0" text-anchor="end" font-family="system-ui, -apple-system, sans-serif" font-size="11">0.00</text>
<line class="grid" x1="56" y1="231.0" x2="796" y2="231.0"/>
<text class="muted" x="48" y="235.0" text-anchor="end" font-family="system-ui, -apple-system, sans-serif" font-size="11">625.0</text>
<line class="grid" x1="56" y1="170.0" x2="796" y2="170.0"/>
<text class="muted" x="48" y="174.0" text-anchor="end" font-family="system-ui, -apple-system, sans-serif" font-size="11">1250</text>
<line class="grid" x1="56" y1="109.0" x2="796" y2="109.0"/>
<text class="muted" x="48" y="113.0" text-anchor="end" font-family="system-ui, -apple-system, sans-serif" font-size="11">1875</text>
<line class="grid" x1="56" y1="48.0" x2="796" y2="48.0"/>
<text class="muted" x="48" y="52.0" text-anchor="end" font-family="system-ui, -apple-system, sans-serif" font-size="11">2500 ms</text>
<line class="axis" x1="56" y1="48" x2="56" y2="292"/>
<line class="axis" x1="56" y1="292" x2="796" y2="292"/>
<rect x="158.1" y="249.4" width="36.0" height="42.6" fill="#2563eb" rx="2"><title>Nova (louds) / path_2hop: 436.5 ms</title></rect>
<rect x="196.1" y="247.5" width="36.0" height="44.5" fill="#7c3aed" rx="2"><title>Nova (ring) / path_2hop: 455.7 ms</title></rect>
<rect x="234.1" y="99.3" width="36.0" height="192.7" fill="#dc2626" rx="2"><title>Oxigraph / path_2hop: 1974 ms</title></rect>
<rect x="272.1" y="166.7" width="36.0" height="125.3" fill="#16a34a" rx="2"><title>QLever / path_2hop: 1284 ms</title></rect>
<rect x="310.1" y="160.7" width="36.0" height="131.3" fill="#ea580c" rx="2"><title>Fluree / path_2hop: 1345 ms</title></rect>
<text class="label" x="252.1" y="308" text-anchor="middle" font-family="system-ui, -apple-system, sans-serif" font-size="11">path_2hop</text>
<rect x="505.9" y="271.1" width="36.0" height="20.9" fill="#2563eb" rx="2"><title>Nova (louds) / triangle: 213.9 ms</title></rect>
<rect x="543.9" y="271.3" width="36.0" height="20.7" fill="#7c3aed" rx="2"><title>Nova (ring) / triangle: 212.5 ms</title></rect>
<rect x="581.9" y="122.1" width="36.0" height="169.9" fill="#dc2626" rx="2"><title>Oxigraph / triangle: 1740 ms</title></rect>
<rect x="619.9" y="249.8" width="36.0" height="42.2" fill="#16a34a" rx="2"><title>QLever / triangle: 432.2 ms</title></rect>
<rect x="657.9" y="229.7" width="36.0" height="62.3" fill="#ea580c" rx="2"><title>Fluree / triangle: 638.7 ms</title></rect>
<text class="label" x="599.9" y="308" text-anchor="middle" font-family="system-ui, -apple-system, sans-serif" font-size="11">triangle</text>
<rect x="169.5" y="343" width="12" height="12" fill="#2563eb" rx="2"/>
<text class="label" x="187.5" y="352" font-family="system-ui, -apple-system, sans-serif" font-size="12">Nova (louds)</text>
<rect x="289.5" y="343" width="12" height="12" fill="#7c3aed" rx="2"/>
<text class="label" x="307.5" y="352" font-family="system-ui, -apple-system, sans-serif" font-size="12">Nova (ring)</text>
<rect x="402.5" y="343" width="12" height="12" fill="#dc2626" rx="2"/>
<text class="label" x="420.5" y="352" font-family="system-ui, -apple-system, sans-serif" font-size="12">Oxigraph</text>
<rect x="494.5" y="343" width="12" height="12" fill="#16a34a" rx="2"/>
<text class="label" x="512.5" y="352" font-family="system-ui, -apple-system, sans-serif" font-size="12">QLever</text>
<rect x="572.5" y="343" width="12" height="12" fill="#ea580c" rx="2"/>
<text class="label" x="590.5" y="352" font-family="system-ui, -apple-system, sans-serif" font-size="12">Fluree</text>
</svg>
