<svg xmlns="http://www.w3.org/2000/svg" width="820" height="380" viewBox="0 0 820 380" role="img" aria-label="Query Latency p50 (scan / joins / star)">
<title>Query Latency p50 (scan / joins / star)</title>
<style>
  .title { fill: #111827; }
  .muted { fill: #6b7280; }
  .label { fill: #374151; }
  .grid  { stroke: #e5e7eb; stroke-width: 1; }
  .axis  { stroke: #9ca3af; stroke-width: 1; }
  @media (prefers-color-scheme: dark) {
    .title { fill: #f3f4f6; }
    .muted { fill: #9ca3af; }
    .label { fill: #d1d5db; }
    .grid  { stroke: #374151; }
    .axis  { stroke: #6b7280; }
  }
</style>
<text class="title" x="410.0" y="22" text-anchor="middle" font-family="system-ui, -apple-system, sans-serif" font-size="15" font-weight="600">Query Latency p50 (scan / joins / star)</text>
<text class="muted" x="410.0" y="40" text-anchor="middle" font-family="system-ui, -apple-system, sans-serif" font-size="11">lower is better; path_2hop &amp; triangle omitted (see next chart)</text>
<line class="grid" x1="56" y1="292.0" x2="796" y2="292.0"/>
<text class="muted" x="48" y="296.0" text-anchor="end" font-family="system-ui, -apple-system, sans-serif" font-size="11">0.00</text>
<line class="grid" x1="56" y1="231.0" x2="796" y2="231.0"/>
<text class="muted" x="48" y="235.0" text-anchor="end" font-family="system-ui, -apple-system, sans-serif" font-size="11">50.00</text>
<line class="grid" x1="56" y1="170.0" x2="796" y2="170.0"/>
<text class="muted" x="48" y="174.0" text-anchor="end" font-family="system-ui, -apple-system, sans-serif" font-size="11">100.0</text>
<line class="grid" x1="56" y1="109.0" x2="796" y2="109.0"/>
<text class="muted" x="48" y="113.0" text-anchor="end" font-family="system-ui, -apple-system, sans-serif" font-size="11">150.0</text>
<line class="grid" x1="56" y1="48.0" x2="796" y2="48.0"/>
<text class="muted" x="48" y="52.0" text-anchor="end" font-family="system-ui, -apple-system, sans-serif" font-size="11">200.0 ms</text>
<line class="axis" x1="56" y1="48" x2="56" y2="292"/>
<line class="axis" x1="56" y1="292" x2="796" y2="292"/>
<rect x="100.4" y="238.4" width="24.3" height="53.6" fill="#2563eb" rx="2"><title>Nova (louds) / scan: 43.93 ms</title></rect>
<rect x="126.7" y="245.4" width="24.3" height="46.6" fill="#7c3aed" rx="2"><title>Nova (ring) / scan: 38.20 ms</title></rect>
<rect x="153.0" y="92.3" width="24.3" height="199.7" fill="#dc2626" rx="2"><title>Oxigraph / scan: 163.6 ms</title></rect>
<rect x="179.3" y="174.7" width="24.3" height="117.3" fill="#16a34a" rx="2"><title>QLever / scan: 96.14 ms</title></rect>
<rect x="205.6" y="155.7" width="24.3" height="136.3" fill="#ea580c" rx="2"><title>Fluree / scan: 111.7 ms</title></rect>
<text class="label" x="165.2" y="308" text-anchor="middle" font-family="system-ui, -apple-system, sans-serif" font-size="11">scan</text>
<rect x="274.3" y="289.9" width="24.3" height="2.1" fill="#2563eb" rx="2"><title>Nova (louds) / 2join: 1.73 ms</title></rect>
<rect x="300.6" y="290.4" width="24.3" height="1.6" fill="#7c3aed" rx="2"><title>Nova (ring) / 2join: 1.32 ms</title></rect>
<rect x="326.9" y="282.2" width="24.3" height="9.8" fill="#dc2626" rx="2"><title>Oxigraph / 2join: 8.00 ms</title></rect>
<rect x="353.2" y="288.5" width="24.3" height="3.5" fill="#16a34a" rx="2"><title>QLever / 2join: 2.84 ms</title></rect>
<rect x="379.5" y="282.7" width="24.3" height="9.3" fill="#ea580c" rx="2"><title>Fluree / 2join: 7.58 ms</title></rect>
<text class="label" x="339.1" y="308" text-anchor="middle" font-family="system-ui, -apple-system, sans-serif" font-size="11">2join</text>
<rect x="448.2" y="291.2" width="24.3" height="0.8" fill="#2563eb" rx="2"><title>Nova (louds) / feature_lookup: 0.65 ms</title></rect>
<rect x="474.5" y="290.9" width="24.3" height="1.1" fill="#7c3aed" rx="2"><title>Nova (ring) / feature_lookup: 0.92 ms</title></rect>
<rect x="500.8" y="288.2" width="24.3" height="3.8" fill="#dc2626" rx="2"><title>Oxigraph / feature_lookup: 3.15 ms</title></rect>
<rect x="527.1" y="290.6" width="24.3" height="1.4" fill="#16a34a" rx="2"><title>QLever / feature_lookup: 1.13 ms</title></rect>
<rect x="553.4" y="288.6" width="24.3" height="3.4" fill="#ea580c" rx="2"><title>Fluree / feature_lookup: 2.77 ms</title></rect>
<text class="label" x="513.0" y="308" text-anchor="middle" font-family="system-ui, -apple-system, sans-serif" font-size="11">feature_lookup</text>
<rect x="622.1" y="275.9" width="24.3" height="16.1" fill="#2563eb" rx="2"><title>Nova (louds) / star_with_features: 13.17 ms</title></rect>
<rect x="648.4" y="274.5" width="24.3" height="17.5" fill="#7c3aed" rx="2"><title>Nova (ring) / star_with_features: 14.34 ms</title></rect>
<rect x="674.7" y="238.9" width="24.3" height="53.1" fill="#dc2626" rx="2"><title>Oxigraph / star_with_features: 43.53 ms</title></rect>
<rect x="701.0" y="244.8" width="24.3" height="47.2" fill="#16a34a" rx="2"><title>QLever / star_with_features: 38.70 ms</title></rect>
<rect x="727.3" y="236.1" width="24.3" height="55.9" fill="#ea580c" rx="2"><title>Fluree / star_with_features: 45.84 ms</title></rect>
<text class="label" x="686.9" y="308" text-anchor="middle" font-family="system-ui, -apple-system, sans-serif" font-size="11">star_with_features</text>
<rect x="169.5" y="343" width="12" height="12" fill="#2563eb" rx="2"/>
<text class="label" x="187.5" y="352" font-family="system-ui, -apple-system, sans-serif" font-size="12">Nova (louds)</text>
<rect x="289.5" y="343" width="12" height="12" fill="#7c3aed" rx="2"/>
<text class="label" x="307.5" y="352" font-family="system-ui, -apple-system, sans-serif" font-size="12">Nova (ring)</text>
<rect x="402.5" y="343" width="12" height="12" fill="#dc2626" rx="2"/>
<text class="label" x="420.5" y="352" font-family="system-ui, -apple-system, sans-serif" font-size="12">Oxigraph</text>
<rect x="494.5" y="343" width="12" height="12" fill="#16a34a" rx="2"/>
<text class="label" x="512.5" y="352" font-family="system-ui, -apple-system, sans-serif" font-size="12">QLever</text>
<rect x="572.5" y="343" width="12" height="12" fill="#ea580c" rx="2"/>
<text class="label" x="590.5" y="352" font-family="system-ui, -apple-system, sans-serif" font-size="12">Fluree</text>
</svg>
