<svg xmlns="http://www.w3.org/2000/svg" width="820" height="380" viewBox="0 0 820 380" role="img" aria-label="Query Latency p50 (scan / joins / star)">
<title>Query Latency p50 (scan / joins / star)</title>
<style>
  .title { fill: #111827; }
  .muted { fill: #6b7280; }
  .label { fill: #374151; }
  .grid  { stroke: #e5e7eb; stroke-width: 1; }
  .axis  { stroke: #9ca3af; stroke-width: 1; }
  @media (prefers-color-scheme: dark) {
    .title { fill: #f3f4f6; }
    .muted { fill: #9ca3af; }
    .label { fill: #d1d5db; }
    .grid  { stroke: #374151; }
    .axis  { stroke: #6b7280; }
  }
</style>
<text class="title" x="410.0" y="22" text-anchor="middle" font-family="system-ui, -apple-system, sans-serif" font-size="15" font-weight="600">Query Latency p50 (scan / joins / star)</text>
<text class="muted" x="410.0" y="40" text-anchor="middle" font-family="system-ui, -apple-system, sans-serif" font-size="11">lower is better; path_2hop &amp; triangle omitted (see next chart)</text>
<line class="grid" x1="56" y1="292.0" x2="796" y2="292.0"/>
<text class="muted" x="48" y="296.0" text-anchor="end" font-family="system-ui, -apple-system, sans-serif" font-size="11">0.00</text>
<line class="grid" x1="56" y1="231.0" x2="796" y2="231.0"/>
<text class="muted" x="48" y="235.0" text-anchor="end" font-family="system-ui, -apple-system, sans-serif" font-size="11">50.00</text>
<line class="grid" x1="56" y1="170.0" x2="796" y2="170.0"/>
<text class="muted" x="48" y="174.0" text-anchor="end" font-family="system-ui, -apple-system, sans-serif" font-size="11">100.0</text>
<line class="grid" x1="56" y1="109.0" x2="796" y2="109.0"/>
<text class="muted" x="48" y="113.0" text-anchor="end" font-family="system-ui, -apple-system, sans-serif" font-size="11">150.0</text>
<line class="grid" x1="56" y1="48.0" x2="796" y2="48.0"/>
<text class="muted" x="48" y="52.0" text-anchor="end" font-family="system-ui, -apple-system, sans-serif" font-size="11">200.0 ms</text>
<line class="axis" x1="56" y1="48" x2="56" y2="292"/>
<line class="axis" x1="56" y1="292" x2="796" y2="292"/>
<rect x="100.4" y="237.6" width="24.3" height="54.4" fill="#2563eb" rx="2"><title>Nova (louds) / scan: 44.57 ms</title></rect>
<rect x="126.7" y="244.9" width="24.3" height="47.1" fill="#7c3aed" rx="2"><title>Nova (ring) / scan: 38.58 ms</title></rect>
<rect x="153.0" y="89.4" width="24.3" height="202.6" fill="#dc2626" rx="2"><title>Oxigraph / scan: 166.1 ms</title></rect>
<rect x="179.3" y="177.4" width="24.3" height="114.6" fill="#16a34a" rx="2"><title>QLever / scan: 93.90 ms</title></rect>
<rect x="205.6" y="153.7" width="24.3" height="138.3" fill="#ea580c" rx="2"><title>Fluree / scan: 113.4 ms</title></rect>
<text class="label" x="165.2" y="308" text-anchor="middle" font-family="system-ui, -apple-system, sans-serif" font-size="11">scan</text>
<rect x="274.3" y="290.3" width="24.3" height="1.7" fill="#2563eb" rx="2"><title>Nova (louds) / 2join: 1.40 ms</title></rect>
<rect x="300.6" y="290.4" width="24.3" height="1.6" fill="#7c3aed" rx="2"><title>Nova (ring) / 2join: 1.33 ms</title></rect>
<rect x="326.9" y="279.9" width="24.3" height="12.1" fill="#dc2626" rx="2"><title>Oxigraph / 2join: 9.92 ms</title></rect>
<rect x="353.2" y="288.8" width="24.3" height="3.2" fill="#16a34a" rx="2"><title>QLever / 2join: 2.60 ms</title></rect>
<rect x="379.5" y="282.5" width="24.3" height="9.5" fill="#ea580c" rx="2"><title>Fluree / 2join: 7.76 ms</title></rect>
<text class="label" x="339.1" y="308" text-anchor="middle" font-family="system-ui, -apple-system, sans-serif" font-size="11">2join</text>
<rect x="448.2" y="291.2" width="24.3" height="0.8" fill="#2563eb" rx="2"><title>Nova (louds) / feature_lookup: 0.65 ms</title></rect>
<rect x="474.5" y="291.1" width="24.3" height="0.9" fill="#7c3aed" rx="2"><title>Nova (ring) / feature_lookup: 0.77 ms</title></rect>
<rect x="500.8" y="288.4" width="24.3" height="3.6" fill="#dc2626" rx="2"><title>Oxigraph / feature_lookup: 2.93 ms</title></rect>
<rect x="527.1" y="290.6" width="24.3" height="1.4" fill="#16a34a" rx="2"><title>QLever / feature_lookup: 1.19 ms</title></rect>
<rect x="553.4" y="287.1" width="24.3" height="4.9" fill="#ea580c" rx="2"><title>Fluree / feature_lookup: 3.99 ms</title></rect>
<text class="label" x="513.0" y="308" text-anchor="middle" font-family="system-ui, -apple-system, sans-serif" font-size="11">feature_lookup</text>
<rect x="622.1" y="274.8" width="24.3" height="17.2" fill="#2563eb" rx="2"><title>Nova (louds) / star_with_features: 14.07 ms</title></rect>
<rect x="648.4" y="274.9" width="24.3" height="17.1" fill="#7c3aed" rx="2"><title>Nova (ring) / star_with_features: 14.00 ms</title></rect>
<rect x="674.7" y="238.5" width="24.3" height="53.5" fill="#dc2626" rx="2"><title>Oxigraph / star_with_features: 43.86 ms</title></rect>
<rect x="701.0" y="245.7" width="24.3" height="46.3" fill="#16a34a" rx="2"><title>QLever / star_with_features: 37.97 ms</title></rect>
<rect x="727.3" y="237.0" width="24.3" height="55.0" fill="#ea580c" rx="2"><title>Fluree / star_with_features: 45.08 ms</title></rect>
<text class="label" x="686.9" y="308" text-anchor="middle" font-family="system-ui, -apple-system, sans-serif" font-size="11">star_with_features</text>
<rect x="169.5" y="343" width="12" height="12" fill="#2563eb" rx="2"/>
<text class="label" x="187.5" y="352" font-family="system-ui, -apple-system, sans-serif" font-size="12">Nova (louds)</text>
<rect x="289.5" y="343" width="12" height="12" fill="#7c3aed" rx="2"/>
<text class="label" x="307.5" y="352" font-family="system-ui, -apple-system, sans-serif" font-size="12">Nova (ring)</text>
<rect x="402.5" y="343" width="12" height="12" fill="#dc2626" rx="2"/>
<text class="label" x="420.5" y="352" font-family="system-ui, -apple-system, sans-serif" font-size="12">Oxigraph</text>
<rect x="494.5" y="343" width="12" height="12" fill="#16a34a" rx="2"/>
<text class="label" x="512.5" y="352" font-family="system-ui, -apple-system, sans-serif" font-size="12">QLever</text>
<rect x="572.5" y="343" width="12" height="12" fill="#ea580c" rx="2"/>
<text class="label" x="590.5" y="352" font-family="system-ui, -apple-system, sans-serif" font-size="12">Fluree</text>
</svg>
