<svg xmlns="http://www.w3.org/2000/svg" width="820" height="380" viewBox="0 0 820 380" role="img" aria-label="Query Latency p50 (path_2hop / triangle)">
<title>Query Latency p50 (path_2hop / triangle)</title>
<style>
  .title { fill: #111827; }
  .muted { fill: #6b7280; }
  .label { fill: #374151; }
  .grid  { stroke: #e5e7eb; stroke-width: 1; }
  .axis  { stroke: #9ca3af; stroke-width: 1; }
  @media (prefers-color-scheme: dark) {
    .title { fill: #f3f4f6; }
    .muted { fill: #9ca3af; }
    .label { fill: #d1d5db; }
    .grid  { stroke: #374151; }
    .axis  { stroke: #6b7280; }
  }
</style>
<text class="title" x="410.0" y="22" text-anchor="middle" font-family="system-ui, -apple-system, sans-serif" font-size="15" font-weight="600">Query Latency p50 (path_2hop / triangle)</text>
<text class="muted" x="410.0" y="40" text-anchor="middle" font-family="system-ui, -apple-system, sans-serif" font-size="11">lower is better; separate scale from lighter queries</text>
<line class="grid" x1="56" y1="292.0" x2="796" y2="292.0"/>
<text class="muted" x="48" y="296.0" text-anchor="end" font-family="system-ui, -apple-system, sans-serif" font-size="11">0.00</text>
<line class="grid" x1="56" y1="231.0" x2="796" y2="231.0"/>
<text class="muted" x="48" y="235.0" text-anchor="end" font-family="system-ui, -apple-system, sans-serif" font-size="11">375.0</text>
<line class="grid" x1="56" y1="170.0" x2="796" y2="170.0"/>
<text class="muted" x="48" y="174.0" text-anchor="end" font-family="system-ui, -apple-system, sans-serif" font-size="11">750.0</text>
<line class="grid" x1="56" y1="109.0" x2="796" y2="109.0"/>
<text class="muted" x="48" y="113.0" text-anchor="end" font-family="system-ui, -apple-system, sans-serif" font-size="11">1125</text>
<line class="grid" x1="56" y1="48.0" x2="796" y2="48.0"/>
<text class="muted" x="48" y="52.0" text-anchor="end" font-family="system-ui, -apple-system, sans-serif" font-size="11">1500 ms</text>
<line class="axis" x1="56" y1="48" x2="56" y2="292"/>
<line class="axis" x1="56" y1="292" x2="796" y2="292"/>
<rect x="139.1" y="222.3" width="36.0" height="69.7" fill="#2563eb" rx="2"><title>Nova (louds) / path_2hop: 428.3 ms</title></rect>
<rect x="177.1" y="219.4" width="36.0" height="72.6" fill="#7c3aed" rx="2"><title>Nova (ring) / path_2hop: 446.5 ms</title></rect>
<rect x="215.1" y="208.4" width="36.0" height="83.6" fill="#dc2626" rx="2"><title>Oxigraph / path_2hop: 514.2 ms</title></rect>
<rect x="253.1" y="88.6" width="36.0" height="203.4" fill="#16a34a" rx="2"><title>QLever / path_2hop: 1250 ms</title></rect>
<rect x="291.1" y="79.4" width="36.0" height="212.6" fill="#ea580c" rx="2"><title>Fluree / path_2hop: 1307 ms</title></rect>
<rect x="329.1" y="269.6" width="36.0" height="22.4" fill="#0891b2" rx="2"><title>RDFox / path_2hop: 138.0 ms</title></rect>
<text class="label" x="252.1" y="308" text-anchor="middle" font-family="system-ui, -apple-system, sans-serif" font-size="11">path_2hop</text>
<rect x="486.9" y="262.7" width="36.0" height="29.3" fill="#2563eb" rx="2"><title>Nova (louds) / triangle: 180.3 ms</title></rect>
<rect x="524.9" y="258.3" width="36.0" height="33.7" fill="#7c3aed" rx="2"><title>Nova (ring) / triangle: 207.3 ms</title></rect>
<rect x="562.9" y="237.1" width="36.0" height="54.9" fill="#dc2626" rx="2"><title>Oxigraph / triangle: 337.4 ms</title></rect>
<rect x="600.9" y="223.9" width="36.0" height="68.1" fill="#16a34a" rx="2"><title>QLever / triangle: 418.7 ms</title></rect>
<rect x="638.9" y="191.2" width="36.0" height="100.8" fill="#ea580c" rx="2"><title>Fluree / triangle: 619.7 ms</title></rect>
<rect x="676.9" y="280.6" width="36.0" height="11.4" fill="#0891b2" rx="2"><title>RDFox / triangle: 70.18 ms</title></rect>
<text class="label" x="599.9" y="308" text-anchor="middle" font-family="system-ui, -apple-system, sans-serif" font-size="11">triangle</text>
<rect x="134.0" y="343" width="12" height="12" fill="#2563eb" rx="2"/>
<text class="label" x="152.0" y="352" font-family="system-ui, -apple-system, sans-serif" font-size="12">Nova (louds)</text>
<rect x="254.0" y="343" width="12" height="12" fill="#7c3aed" rx="2"/>
<text class="label" x="272.0" y="352" font-family="system-ui, -apple-system, sans-serif" font-size="12">Nova (ring)</text>
<rect x="367.0" y="343" width="12" height="12" fill="#dc2626" rx="2"/>
<text class="label" x="385.0" y="352" font-family="system-ui, -apple-system, sans-serif" font-size="12">Oxigraph</text>
<rect x="459.0" y="343" width="12" height="12" fill="#16a34a" rx="2"/>
<text class="label" x="477.0" y="352" font-family="system-ui, -apple-system, sans-serif" font-size="12">QLever</text>
<rect x="537.0" y="343" width="12" height="12" fill="#ea580c" rx="2"/>
<text class="label" x="555.0" y="352" font-family="system-ui, -apple-system, sans-serif" font-size="12">Fluree</text>
<rect x="615.0" y="343" width="12" height="12" fill="#0891b2" rx="2"/>
<text class="label" x="633.0" y="352" font-family="system-ui, -apple-system, sans-serif" font-size="12">RDFox</text>
</svg>
