<svg xmlns="http://www.w3.org/2000/svg" width="820" height="380" viewBox="0 0 820 380" role="img" aria-label="Query Latency p50 (path_2hop / triangle)">
<title>Query Latency p50 (path_2hop / triangle)</title>
<style>
  .title { fill: #111827; }
  .muted { fill: #6b7280; }
  .label { fill: #374151; }
  .grid  { stroke: #e5e7eb; stroke-width: 1; }
  .axis  { stroke: #9ca3af; stroke-width: 1; }
  @media (prefers-color-scheme: dark) {
    .title { fill: #f3f4f6; }
    .muted { fill: #9ca3af; }
    .label { fill: #d1d5db; }
    .grid  { stroke: #374151; }
    .axis  { stroke: #6b7280; }
  }
</style>
<text class="title" x="410.0" y="22" text-anchor="middle" font-family="system-ui, -apple-system, sans-serif" font-size="15" font-weight="600">Query Latency p50 (path_2hop / triangle)</text>
<text class="muted" x="410.0" y="40" text-anchor="middle" font-family="system-ui, -apple-system, sans-serif" font-size="11">lower is better; separate scale from lighter queries</text>
<line class="grid" x1="56" y1="292.0" x2="796" y2="292.0"/>
<text class="muted" x="48" y="296.0" text-anchor="end" font-family="system-ui, -apple-system, sans-serif" font-size="11">0.00</text>
<line class="grid" x1="56" y1="231.0" x2="796" y2="231.0"/>
<text class="muted" x="48" y="235.0" text-anchor="end" font-family="system-ui, -apple-system, sans-serif" font-size="11">500.0</text>
<line class="grid" x1="56" y1="170.0" x2="796" y2="170.0"/>
<text class="muted" x="48" y="174.0" text-anchor="end" font-family="system-ui, -apple-system, sans-serif" font-size="11">1000</text>
<line class="grid" x1="56" y1="109.0" x2="796" y2="109.0"/>
<text class="muted" x="48" y="113.0" text-anchor="end" font-family="system-ui, -apple-system, sans-serif" font-size="11">1500</text>
<line class="grid" x1="56" y1="48.0" x2="796" y2="48.0"/>
<text class="muted" x="48" y="52.0" text-anchor="end" font-family="system-ui, -apple-system, sans-serif" font-size="11">2000 ms</text>
<line class="axis" x1="56" y1="48" x2="56" y2="292"/>
<line class="axis" x1="56" y1="292" x2="796" y2="292"/>
<rect x="139.1" y="238.1" width="36.0" height="53.9" fill="#2563eb" rx="2"><title>Nova (louds) / path_2hop: 441.6 ms</title></rect>
<rect x="177.1" y="236.2" width="36.0" height="55.8" fill="#7c3aed" rx="2"><title>Nova (ring) / path_2hop: 457.1 ms</title></rect>
<rect x="215.1" y="229.2" width="36.0" height="62.8" fill="#dc2626" rx="2"><title>Oxigraph / path_2hop: 515.0 ms</title></rect>
<rect x="253.1" y="137.3" width="36.0" height="154.7" fill="#16a34a" rx="2"><title>QLever / path_2hop: 1268 ms</title></rect>
<rect x="291.1" y="115.2" width="36.0" height="176.8" fill="#ea580c" rx="2"><title>Fluree / path_2hop: 1449 ms</title></rect>
<rect x="329.1" y="275.1" width="36.0" height="16.9" fill="#0891b2" rx="2"><title>RDFox / path_2hop: 138.5 ms</title></rect>
<text class="label" x="252.1" y="308" text-anchor="middle" font-family="system-ui, -apple-system, sans-serif" font-size="11">path_2hop</text>
<rect x="486.9" y="264.9" width="36.0" height="27.1" fill="#2563eb" rx="2"><title>Nova (louds) / triangle: 221.9 ms</title></rect>
<rect x="524.9" y="266.2" width="36.0" height="25.8" fill="#7c3aed" rx="2"><title>Nova (ring) / triangle: 211.4 ms</title></rect>
<rect x="562.9" y="250.8" width="36.0" height="41.2" fill="#dc2626" rx="2"><title>Oxigraph / triangle: 338.0 ms</title></rect>
<rect x="600.9" y="240.2" width="36.0" height="51.8" fill="#16a34a" rx="2"><title>QLever / triangle: 424.3 ms</title></rect>
<rect x="638.9" y="215.0" width="36.0" height="77.0" fill="#ea580c" rx="2"><title>Fluree / triangle: 631.1 ms</title></rect>
<rect x="676.9" y="283.1" width="36.0" height="8.9" fill="#0891b2" rx="2"><title>RDFox / triangle: 72.67 ms</title></rect>
<text class="label" x="599.9" y="308" text-anchor="middle" font-family="system-ui, -apple-system, sans-serif" font-size="11">triangle</text>
<rect x="134.0" y="343" width="12" height="12" fill="#2563eb" rx="2"/>
<text class="label" x="152.0" y="352" font-family="system-ui, -apple-system, sans-serif" font-size="12">Nova (louds)</text>
<rect x="254.0" y="343" width="12" height="12" fill="#7c3aed" rx="2"/>
<text class="label" x="272.0" y="352" font-family="system-ui, -apple-system, sans-serif" font-size="12">Nova (ring)</text>
<rect x="367.0" y="343" width="12" height="12" fill="#dc2626" rx="2"/>
<text class="label" x="385.0" y="352" font-family="system-ui, -apple-system, sans-serif" font-size="12">Oxigraph</text>
<rect x="459.0" y="343" width="12" height="12" fill="#16a34a" rx="2"/>
<text class="label" x="477.0" y="352" font-family="system-ui, -apple-system, sans-serif" font-size="12">QLever</text>
<rect x="537.0" y="343" width="12" height="12" fill="#ea580c" rx="2"/>
<text class="label" x="555.0" y="352" font-family="system-ui, -apple-system, sans-serif" font-size="12">Fluree</text>
<rect x="615.0" y="343" width="12" height="12" fill="#0891b2" rx="2"/>
<text class="label" x="633.0" y="352" font-family="system-ui, -apple-system, sans-serif" font-size="12">RDFox</text>
</svg>
